<svg xmlns="http://www.w3.org/2000/svg" version="1.1" xmlns:xlink="http://www.w3.org/1999/xlink" xmlns:svgjs="http://svgjs.dev/svgjs" width="100%" height="100%" viewBox="0 0 1000 600"><rect width="1000" height="600" x="0" y="0" fill="#bbbbbb"/><g><rect width="333.3333333333333" height="333.3333333333333" rx="13.333333333333334" ry="13.333333333333334" y="77.77777014838344" fill="#08ffad" transform="matrix(2.2499999313354513,0,0,2.2499999313354517,0,-249.99999084472722)" x="55.55555725097656"/><path d="M117.3766297202033 208.18125345332564L115.18349826316218 207.08468772480504Q115.18349826316218 207.08468772480504 114.97948603460023 206.90617702481333L114.97948603460023 206.90617702481333Q114.8009753346085 206.90617702481333 114.8009753346085 206.90617702481333L114.8009753346085 206.90617702481333Q110.77173382050972 204.1520119392268 107.09951370639438 201.01532392508662Q103.42729359227903 197.9041374395167 99.9335841781554 194.5889387253848L99.9335841781554 194.5889387253848Q93.1501775784701 188.34106422567467 85.60172512167745 182.83273405450166L85.60172512167745 182.83273405450166Q84.88768232171059 182.4757126545182 84.32664869316518 182.0166851402538Q83.76561506461978 181.55765762598935 83.23008296464462 180.99662399744398L83.23008296464462 180.99662399744398Q82.13351723612408 180.81811329745227 81.39397290758696 179.90005826892343L81.39397290758696 179.90005826892343Q81.21546220759524 179.54303686893996 80.83293927904155 178.80349254040289L80.83293927904155 178.80349254040289Q78.99682922198389 178.80349254040289 78.25728489344677 177.98744362615503Q77.54324209347989 177.1458931833369 80.47591787905812 174.03470669776698L80.47591787905812 174.03470669776698Q81.57248360757868 172.93814096924643 82.38853252182653 171.7395691264449Q83.23008296464462 170.54099728364332 84.68367009314862 169.80145295510619L84.68367009314862 169.80145295510619Q85.80573735023941 169.44443155512278 86.51978015020629 169.44443155512278Q87.25932447874341 169.44443155512278 88.17737950727225 169.44443155512278L88.17737950727225 169.44443155512278Q89.09543453580108 169.62294225511448 89.65646816434648 169.62294225511448L89.65646816434648 169.62294225511448Q92.23212254994127 169.80145295510619 94.70577082125509 169.80145295510619Q97.17941909256889 169.80145295510619 99.75507347816368 169.97996365509795L99.75507347816368 169.97996365509795Q103.96282569225419 169.97996365509795 108.19607943491494 170.36248658365162Q112.42933317757567 170.71950798363503 116.63708539166618 171.10203091218875L116.63708539166618 171.10203091218875Q118.65170614871556 171.28054161218046 120.87033913432691 171.56105842645314Q123.06347059136803 171.81607371215557 125.07809134841742 172.93814096924643L125.07809134841742 172.93814096924643Q126.20015860550822 173.6521837692133 127.01620751975608 174.57023879774215Q127.83225643400394 175.48829382627093 128.57180076254105 176.40634885479977L128.57180076254105 176.40634885479977Q129.87237871962355 177.88543751187404 130.96894444814413 179.36452616894826Q132.06551017666467 180.81811329745227 133.16207590518522 182.29720195452649L133.16207590518522 182.29720195452649Q135.3807088907966 185.05136704011298 137.67584646211867 187.88203671141022Q139.97098403344077 190.73820791127773 142.3426261904736 193.49237299686425L142.3426261904736 193.49237299686425Q143.26068121900244 194.5889387253848 144.17873624753128 195.78751056818632Q145.09679127606012 196.98608241098785 146.19335700458066 198.08264813950845L146.19335700458066 198.08264813950845Q147.1114120331095 198.26115883950015 147.67244566165488 199.179213868029L147.67244566165488 199.179213868029Q147.8509563616466 199.3577245680207 148.2334792902003 200.27577959654954L148.2334792902003 200.27577959654954Q149.33004501872085 201.01532392508662 149.61056183299354 202.31590188216913Q149.865577118696 203.59097831068144 148.94752209016718 204.68754403920198L148.94752209016718 204.68754403920198Q146.75439063312606 207.08468772480504 145.3773080903328 207.82423205334217Q144.00022554753954 208.53827485330905 140.8890390619696 208.742287081871L140.8890390619696 208.742287081871L140.68502683340765 208.742287081871Q140.68502683340765 208.742287081871 140.68502683340765 208.742287081871L140.68502683340765 208.742287081871Q140.50651613341591 208.742287081871 139.7669718048788 208.742287081871L139.7669718048788 208.742287081871Q134.46265386226776 208.742287081871 129.13283439108645 208.81879166758173Q123.80301491990515 208.92079778186272 118.47319544872386 208.53827485330905L118.47319544872386 208.53827485330905Q118.47319544872386 208.53827485330905 117.93766334874869 208.35976415331734L117.93766334874869 208.35976415331734Q117.3766297202033 208.18125345332564 117.3766297202033 208.18125345332564L117.3766297202033 208.18125345332564ZM86.51978015020629 178.06394821186575L86.51978015020629 178.06394821186575L86.51978015020629 174.21321739775868Q86.51978015020629 174.03470669776698 86.72379237876825 174.03470669776698L86.72379237876825 174.03470669776698Q86.90230307875997 173.85619599777527 86.90230307875997 173.85619599777527L86.90230307875997 173.85619599777527L92.0281103213793 174.77425102630406Q92.410633249933 174.3917280977504 92.76765464991642 174.77425102630406L92.76765464991642 174.77425102630406L101.76969423521308 174.95276172629582Q101.94820493520479 174.57023879774215 102.50923856375019 174.95276172629582L102.50923856375019 174.95276172629582L106.71699077784069 174.57023879774215Q103.04477066372534 174.3917280977504 99.57656277817196 174.3917280977504L99.57656277817196 174.3917280977504Q97.17941909256889 174.21321739775868 94.6037647069741 174.21321739775868Q92.0281103213793 174.21321739775868 89.47795746435477 174.03470669776698L89.47795746435477 174.03470669776698Q89.27394523579281 174.03470669776698 88.55990243582593 173.85619599777527L88.55990243582593 173.85619599777527Q87.08081377875169 173.6521837692133 86.72379237876825 173.85619599777527L86.72379237876825 173.85619599777527Q85.98424805023114 174.21321739775868 85.42321442168574 174.85075561201484Q84.88768232171059 175.48829382627093 84.5051593931569 176.22783815480807L84.5051593931569 176.22783815480807Q84.68367009314862 176.61036108336174 84.68367009314862 176.9673824833452L84.68367009314862 176.9673824833452Q84.88768232171059 176.9673824833452 85.0661930217023 176.9673824833452L85.0661930217023 176.9673824833452Q85.60172512167745 177.3244038833286 86.51978015020629 178.06394821186575ZM87.64184740729709 175.13127242628752L87.64184740729709 178.9820032403946Q87.99886880728053 179.1605139403863 88.17737950727225 179.36452616894826L88.17737950727225 179.36452616894826Q88.17737950727225 179.36452616894826 88.17737950727225 179.36452616894826L88.17737950727225 179.36452616894826L90.75303389286704 175.6923060548329L87.64184740729709 175.13127242628752ZM114.62246463461679 175.30978312627923L103.78431499226247 175.87081675482466L111.30726592048487 181.91467902597282L118.29468474873212 175.6923060548329Q117.73365112018672 175.48829382627093 117.19811902021158 175.48829382627093Q116.63708539166618 175.48829382627093 116.10155329169103 175.48829382627093L116.10155329169103 175.48829382627093Q115.3620089631539 175.30978312627923 114.62246463461679 175.30978312627923L114.62246463461679 175.30978312627923ZM101.03014990667596 176.04932745481636L93.68570967844526 175.87081675482466L100.67312850669252 183.21525698305533L101.03014990667596 176.04932745481636ZM121.60988346286403 176.22783815480807L121.60988346286403 176.22783815480807L121.22736053431035 178.9820032403946L122.88495989137631 176.78887178335344Q122.88495989137631 176.78887178335344 122.70644919138459 176.78887178335344L122.70644919138459 176.78887178335344Q122.32392626283091 176.40634885479977 121.60988346286403 176.22783815480807ZM92.5891439499247 182.6542233545099L99.19403984961828 183.95480131159243L92.0281103213793 176.22783815480807L89.47795746435477 180.2825811974771Q90.93154459285876 181.37914692599765 92.5891439499247 182.6542233545099L92.5891439499247 182.6542233545099ZM102.50923856375019 176.78887178335344L101.94820493520479 184.13331201158414L109.67516809198916 182.4757126545182L102.50923856375019 176.78887178335344ZM123.98152561989687 177.70692681188228L121.40587123430208 181.37914692599765L129.48985579106989 184.6688441115593Q128.39329006254934 183.39376768304703 127.37322891973952 182.0166851402538Q126.37866930549993 180.6396025974605 125.28210357697938 179.36452616894826L125.28210357697938 179.36452616894826Q124.89958064842571 178.9820032403946 124.61906383415301 178.52297572613014Q124.36404854845055 178.06394821186575 123.98152561989687 177.70692681188228L123.98152561989687 177.70692681188228ZM81.39397290758696 178.62498184041112L81.39397290758696 178.62498184041112Q82.66904933609922 179.36452616894826 83.96962729318174 178.62498184041112L83.96962729318174 178.62498184041112Q85.0661930217023 178.24245891185745 83.40859366463634 178.44647114041942L83.40859366463634 178.44647114041942Q83.05157226465292 178.44647114041942 82.49053863610752 178.52297572613014Q81.92950500756211 178.62498184041112 81.39397290758696 178.62498184041112ZM119.95228410579809 180.99662399744398L112.42933317757567 182.29720195452649L119.5697611772444 181.37914692599765Q119.5697611772444 181.37914692599765 119.95228410579809 180.99662399744398L119.95228410579809 180.99662399744398ZM112.046810249022 183.57227838303876L117.55514042019502 195.68550445390534L119.77377340580637 182.4757126545182L112.046810249022 183.57227838303876ZM110.38921089195603 183.39376768304703L102.1267156351965 185.22987774010474L104.52385932079959 191.65626293980657L110.38921089195603 183.39376768304703ZM98.83701844963485 187.8055321256995L98.83701844963485 187.8055321256995L100.29060557813884 185.22987774010474L94.42525400698239 184.13331201158414Q96.61838546402349 185.96942206864182 98.83701844963485 187.8055321256995ZM111.12875522049316 184.3118227115759L105.44191434932841 192.39580726834365L116.45857469167444 195.8895166824673L111.12875522049316 184.3118227115759ZM120.6918284343352 184.3118227115759L118.65170614871556 195.50699375391363L123.80301491990515 192.01328433978998L120.6918284343352 184.3118227115759ZM98.83701844963485 191.09522931126114L102.86625996373363 191.2992415398231Q102.86625996373363 191.2992415398231 102.86625996373363 191.2992415398231L102.86625996373363 191.2992415398231Q103.04477066372534 191.47775223981486 103.42729359227903 191.83477363979827L103.42729359227903 191.83477363979827L100.85163920668424 186.32644346862529L99.75507347816368 188.54507645423664Q99.9335841781554 188.72358715422834 99.9335841781554 188.72358715422834L99.9335841781554 188.72358715422834L98.83701844963485 191.09522931126114ZM101.03014990667596 186.70896639717895L102.86625996373363 191.2992415398231Q101.41267283522964 189.9986635827406 99.9335841781554 188.72358715422834L99.9335841781554 188.72358715422834L101.03014990667596 186.70896639717895ZM131.70848877668124 187.6270214257078L131.70848877668124 187.6270214257078L126.55718000549166 191.83477363979827L135.73773029078 192.39580726834365Q133.90162023372235 190.17717428273235 131.70848877668124 187.6270214257078ZM134.46265386226776 202.6729232821526L137.93086174782113 195.14997235393022Q137.39532964784598 194.5889387253848 137.01280671929229 194.05340662540962L137.01280671929229 194.05340662540962L126.37866930549993 193.3138622968725L134.46265386226776 202.6729232821526ZM123.62450421991343 194.05340662540962L118.65170614871556 197.1645931109796L121.96690486284747 203.029944682136L123.62450421991343 194.05340662540962ZM123.24198129135975 204.33052263921851L133.16207590518522 203.41246761068967L125.07809134841742 194.05340662540962L123.24198129135975 204.33052263921851ZM116.81559609165788 197.52161451096302L106.53848007784897 194.23191732540138L108.0175687349232 195.8895166824673Q109.67516809198916 197.52161451096302 111.51127814904683 198.89869705375625Q113.34738820610451 200.27577959654954 115.18349826316218 201.75486825362375L115.18349826316218 201.75486825362375L116.81559609165788 197.52161451096302ZM142.90365981901897 204.1520119392268L142.90365981901897 204.1520119392268L140.50651613341591 198.26115883950015Q140.1494947334325 197.72562673952498 139.7669718048788 197.2665992252606Q139.40995040489537 196.80757171099614 138.84891677634997 196.24653808245077L138.84891677634997 196.24653808245077Q138.84891677634997 196.24653808245077 138.84891677634997 196.24653808245077Q138.84891677634997 196.24653808245077 138.84891677634997 196.24653808245077L138.84891677634997 196.24653808245077L135.73773029078 203.41246761068967L141.24606046195305 204.1520119392268Q142.72514911902726 204.1520119392268 142.90365981901897 204.1520119392268ZM121.04884983431864 204.33052263921851L121.04884983431864 204.33052263921851L117.93766334874869 198.64368176805382L116.45857469167444 202.4944125821609Q116.81559609165788 202.8514339821443 117.19811902021158 203.23395691069797L117.19811902021158 203.23395691069797L119.21273977726096 204.1520119392268Q120.1307948057898 204.1520119392268 121.04884983431864 204.33052263921851ZM144.00022554753954 201.93337895361546L144.00022554753954 201.93337895361546Q143.8217148475478 201.75486825362375 143.6432041475561 201.57635755363205L143.6432041475561 201.57635755363205L144.56125917608495 202.4944125821609Q144.35724694752298 202.4944125821609 144.35724694752298 202.31590188216913L144.35724694752298 202.31590188216913Q144.17873624753128 202.11188965360716 144.00022554753954 201.93337895361546ZM267.75914369894076 195.50699375391363L271.6098745130478 197.72562673952498Q271.78838521303953 197.72562673952498 271.78838521303953 197.9041374395167L271.78838521303953 197.9041374395167L272.52792954157667 199.00070316803723L274.0070181986509 200.27577959654954Q274.542550298626 200.09726889655784 274.72106099861776 200.6583025251032L274.72106099861776 200.6583025251032L275.1035839271714 201.75486825362375L278.77580404128673 206.90617702481333Q281.70847982686496 209.4563298818379 284.10562351246807 211.85347356744094L284.10562351246807 211.85347356744094Q284.10562351246807 211.85347356744094 284.46264491245154 212.2104949674244L284.46264491245154 212.2104949674244Q284.64115561244324 212.59301789597808 284.64115561244324 212.77152859596978L284.64115561244324 212.77152859596978Q287.95635432657514 219.55493519565508 288.874409355104 227.46040905243117L288.874409355104 227.46040905243117Q289.0529200550957 228.02144268097655 289.0529200550957 228.73548548094342L289.0529200550957 228.73548548094342Q289.23143075508744 229.85755273803423 289.33343686936837 230.6736016522821Q289.40994145507915 231.48965056652995 288.874409355104 232.61171782362075L288.874409355104 232.61171782362075Q286.8597885980546 236.81947003771123 284.2841342124598 237.45700825196738Q281.70847982686496 238.12004799479374 277.85774901275795 237.91603576623177L277.85774901275795 237.91603576623177Q277.4752260842042 237.91603576623177 277.4752260842042 237.91603576623177L277.4752260842042 237.91603576623177Q270.8703301845107 237.38050366625666 264.1634281705361 237.27849755197568Q257.4820276851318 237.20199296626495 250.85163025686802 236.81947003771123L250.85163025686802 236.81947003771123Q248.8370094998186 236.81947003771123 246.9243948570502 236.81947003771123Q244.98627868571154 236.81947003771123 243.1501686286539 236.81947003771123L243.1501686286539 236.81947003771123Q243.1501686286539 236.81947003771123 242.97165792866215 236.64095933771952L242.97165792866215 236.64095933771952Q242.97165792866215 236.64095933771952 242.97165792866215 236.64095933771952L242.97165792866215 236.64095933771952Q241.49256927158794 236.46244863772782 240.11548672879468 236.36044252344684Q238.73840418600142 236.2839379377361 237.64183845748087 235.1618706806453L237.64183845748087 235.1618706806453Q236.3667620289686 234.06530495212476 236.1627498004066 232.86673310932323Q235.9842391004149 231.6936627950919 235.44870700043973 230.2145741380177L235.44870700043973 230.2145741380177Q234.70916267190262 228.73548548094342 233.86761222908456 227.00138153816673Q233.05156331483667 225.26727759539008 231.95499758631613 223.96669963830757L231.95499758631613 223.96669963830757Q231.57247465776246 223.6096782383241 230.9349364435063 223.04864460977868Q230.29739822925018 222.51311250980356 229.2008325007296 222.1305895812499L229.2008325007296 222.1305895812499Q228.81830957217593 222.1305895812499 227.9002545436471 222.3091002812416L227.9002545436471 222.3091002812416Q227.18621174368025 222.3091002812416 226.98219951511825 222.3091002812416L226.98219951511825 222.3091002812416Q224.22803442953176 222.51311250980356 221.57587545822622 222.768127795506Q218.9237164869207 223.04864460977868 216.5265728013176 224.14521033829928L216.5265728013176 224.14521033829928Q216.16955140133416 224.3492225668612 215.43000707279705 224.70624396684465Q214.69046274425995 225.06326536682812 214.3334413442765 225.26727759539008L214.3334413442765 225.26727759539008Q214.3334413442765 225.6242989953735 214.3334413442765 226.36384332391063L214.3334413442765 226.36384332391063Q214.51195204426824 227.81743045241458 214.51195204426824 228.1999533809683L214.51195204426824 228.1999533809683Q214.51195204426824 229.11800840949715 214.51195204426824 230.2145741380177Q214.51195204426824 231.31113986653824 214.3334413442765 232.22919489506708L214.3334413442765 232.22919489506708Q214.3334413442765 236.2839379377361 214.23143522999553 240.13466875184318Q214.12942911571454 243.9853995659502 214.12942911571454 248.01464108004902L214.12942911571454 248.01464108004902Q214.12942911571454 251.8908734227263 214.12942911571454 255.7416042368334Q214.12942911571454 259.5923350509404 214.3334413442765 263.4430658650475L214.3334413442765 263.4430658650475Q214.3334413442765 264.18261019358465 214.3334413442765 265.45768662209684L214.3334413442765 265.45768662209684Q214.3334413442765 268.4158639362454 214.58845662997896 271.52705042181526Q214.86897344425168 274.63823690738525 216.70508350130933 276.85686989299666L216.70508350130933 276.85686989299666Q216.70508350130933 277.0353805929883 216.88359420130104 277.0353805929883L216.88359420130104 277.0353805929883L220.19879291543296 279.2285120500294Q222.95295800101948 280.1465670785583 226.1661506008704 279.6110349785831Q229.37934320072137 279.05000135003775 231.39396395777075 277.5964142215337L231.39396395777075 277.5964142215337Q233.2300740148284 276.29583626445117 233.9696183433655 274.5617323216745Q234.70916267190262 272.80212685032757 235.6272177004315 270.9660167932699L235.6272177004315 270.9660167932699Q236.3667620289686 269.51242966476593 236.82578954323301 268.1353471219727Q237.2848170574974 266.75826457917935 238.55989348600968 265.84020955065057L238.55989348600968 265.84020955065057Q240.39600354306737 264.3611208935763 242.58913500010848 264.0806040793036Q244.80776798571983 263.8255887936011 247.00089944276095 263.8255887936011L247.00089944276095 263.8255887936011Q247.74044377129806 263.6215765650393 248.30147739984346 263.6215765650393L248.30147739984346 263.6215765650393Q254.34533967099162 263.26455516505575 260.41470347071004 263.086044465064Q266.4585657418582 262.90753376507234 272.52792954157667 262.7035215365104L272.52792954157667 262.7035215365104Q274.1855288986426 262.7035215365104 275.84312825570856 262.62701695079966Q277.4752260842042 262.5250108365186 279.1328254412702 262.5250108365186L279.1328254412702 262.5250108365186Q279.6938590698156 262.5250108365186 280.61191409834447 262.5250108365186L280.61191409834447 262.5250108365186Q281.35145842688155 262.34650013652697 282.16750734112946 262.34650013652697Q282.98355625537727 262.34650013652697 283.90161128390616 262.90753376507234L283.90161128390616 262.90753376507234Q288.1348650265669 265.10066522211343 288.772403240823 267.5743134934272Q289.40994145507915 270.0479617647411 289.0529200550957 274.28121550740184L289.0529200550957 274.28121550740184Q288.31337572655855 279.7895456785749 286.40076108379014 285.65489724973133Q284.46264491245154 291.545750349458 280.7904247983362 295.7535025635485L280.7904247983362 295.7535025635485Q278.3932811127331 298.8901905776887 275.4606053271549 301.3638388490025Q272.52792954157667 303.83748712031627 269.2127308274447 306.0561201059277L269.2127308274447 306.0561201059277Q265.7445229418913 309.3458172914893 260.7717248706935 311.5644502771007Q255.82442832806586 313.7575817341418 250.59661497116554 315.23667039121597Q245.34330008569498 316.69025751972003 240.7530249430508 318.1693461767942L240.7530249430508 318.1693461767942Q240.7530249430508 318.1693461767942 240.5745142430591 318.1693461767942L240.5745142430591 318.1693461767942Q240.39600354306737 318.1693461767942 240.39600354306737 318.1693461767942L240.39600354306737 318.1693461767942Q236.5452727289603 318.9088905053313 232.59253580057228 319.0874012053231Q228.63979887218423 319.26591190531474 224.78906805807716 319.26591190531474L224.78906805807716 319.26591190531474Q224.78906805807716 319.26591190531474 224.78906805807716 319.26591190531474L224.78906805807716 319.26591190531474L224.78906805807716 319.26591190531474L219.63775928688756 319.4444226053065Q219.63775928688756 319.4444226053065 219.63775928688756 319.4444226053065L219.63775928688756 319.4444226053065Q219.45924858689585 319.4444226053065 219.45924858689585 319.4444226053065L219.45924858689585 319.4444226053065Q214.69046274425995 319.26591190531474 209.92167690162404 318.70487827676936Q205.15289105898816 318.1693461767942 200.35860368778202 317.2512911482654L200.35860368778202 317.2512911482654Q195.05428574517094 316.15472541974486 189.54595557399793 314.57363064838967Q184.03762540282491 313.0180374056047 179.44735026018074 309.5243279914811L179.44735026018074 309.5243279914811Q179.44735026018074 309.5243279914811 179.44735026018074 309.3458172914893L179.44735026018074 309.3458172914893Q179.24333803161878 309.3458172914893 179.24333803161878 309.3458172914893L179.24333803161878 309.3458172914893Q173.73500786044576 303.83748712031627 168.8897174320991 295.2944750492841Q164.01892547518224 286.7769645068221 161.26476038959572 279.43252427859136L161.26476038959572 279.43252427859136Q161.26476038959572 279.43252427859136 161.26476038959572 279.43252427859136L161.26476038959572 279.43252427859136Q161.08624968960402 279.2285120500294 161.08624968960402 279.2285120500294L161.08624968960402 279.2285120500294Q159.9641824325132 275.020759835939 159.8876778468025 270.4304846932947Q159.78567173252148 265.84020955065057 159.78567173252148 261.4284451079981L159.78567173252148 261.4284451079981Q159.78567173252148 259.77084575093215 159.8876778468025 258.21525250814716Q159.9641824325132 256.65965926536217 159.78567173252148 255.18057060828798L159.78567173252148 255.18057060828798Q159.78567173252148 254.8235492083045 159.78567173252148 254.36452169404012Q159.78567173252148 253.90549417977573 159.78567173252148 253.522971251222L159.78567173252148 253.522971251222Q159.60716103252975 249.49372973712323 159.60716103252975 243.80688886595848Q159.60716103252975 238.12004799479374 159.9641824325132 232.05068419507532Q160.34670536106688 225.9813203953569 161.6217817895792 220.93201773844837Q162.9223597466617 215.88271508153971 165.2940019036945 213.33256222451516L165.2940019036945 213.33256222451516Q169.34874494636352 208.742287081871 173.37798646046232 204.1520119392268L173.37798646046232 204.1520119392268L176.31066224604052 200.27577959654954Q176.31066224604052 200.09726889655784 176.31066224604052 200.09726889655784L176.31066224604052 200.09726889655784Q176.31066224604052 199.74024749657437 176.69318517459425 199.56173679658266L176.69318517459425 199.56173679658266L178.88631663163534 198.26115883950015Q184.5731575028001 192.5743179683354 190.2599983739648 187.06598779716236L190.2599983739648 187.06598779716236Q190.2599983739648 187.06598779716236 190.46401060252674 186.88747709717066L190.46401060252674 186.88747709717066Q190.8210320025102 186.70896639717895 190.8210320025102 186.70896639717895L190.8210320025102 186.70896639717895Q195.76832854513782 183.95480131159243 201.65918164486453 182.83273405450166Q207.52453321602098 181.7361683259811 213.032863387194 180.81811329745227L213.032863387194 180.81811329745227Q216.88359420130104 180.07856896891514 222.03490297249064 179.72154756893167Q227.18621174368025 179.36452616894826 232.2355144005888 179.6195414546507Q237.2848170574974 179.90005826892343 241.1355478716045 181.20063622600594L241.1355478716045 181.20063622600594Q241.1355478716045 181.20063622600594 241.49256927158794 181.37914692599765L241.49256927158794 181.37914692599765Q241.8750922001416 181.55765762598935 241.8750922001416 181.55765762598935L241.8750922001416 181.55765762598935Q243.88971295719102 182.83273405450166 246.00633982852136 184.20981659729492Q248.09746517128153 185.58689914008815 250.31609815689285 187.06598779716236L250.31609815689285 187.06598779716236L251.41266388541342 187.24449849715413Q251.41266388541342 187.24449849715413 251.51466999969438 187.34650461143505Q251.59117458540513 187.42300919714583 251.59117458540513 187.42300919714583L251.59117458540513 187.42300919714583L260.2361927707183 191.09522931126114Q260.2361927707183 191.09522931126114 260.41470347071004 191.2992415398231L260.41470347071004 191.2992415398231L265.3620000133377 193.3138622968725Q265.9230336418831 193.49237299686425 265.7445229418913 194.05340662540962L265.7445229418913 194.05340662540962L267.75914369894076 195.50699375391363ZM219.84177151544952 184.3118227115759L219.84177151544952 184.3118227115759L223.51399162956488 184.3118227115759L231.21545325777902 183.95480131159243Q225.70712308660598 183.57227838303876 219.84177151544952 184.3118227115759ZM227.9002545436471 194.97146165393846L232.31201898629956 185.05136704011298Q232.31201898629956 185.05136704011298 232.13350828630786 185.05136704011298L232.13350828630786 185.05136704011298L224.22803442953176 185.40838844009645Q224.04952372954003 185.40838844009645 224.04952372954003 185.40838844009645L224.04952372954003 185.40838844009645L227.9002545436471 194.97146165393846ZM241.8750922001416 196.60355948243418L239.83496991452196 186.14793276863352Q239.6564592145303 185.96942206864182 239.6564592145303 185.79091136865011L239.6564592145303 185.79091136865011L233.61259694338207 185.05136704011298L241.8750922001416 196.60355948243418ZM222.77444730102778 185.40838844009645L214.3334413442765 185.22987774010474Q214.12942911571454 185.40838844009645 214.12942911571454 185.40838844009645L214.12942911571454 185.40838844009645L215.96553917277222 197.1645931109796L222.77444730102778 185.40838844009645ZM203.31678100193048 187.42300919714583L204.77036813043446 193.67088369685595L212.67584198721056 185.40838844009645L203.31678100193048 187.42300919714583ZM233.05156331483667 186.14793276863352L229.0223218007379 195.32848305392193L240.95703717161274 197.1645931109796L233.05156331483667 186.14793276863352ZM214.86897344425168 197.1645931109796L213.032863387194 186.504954168617L205.86693385895504 194.05340662540962L214.86897344425168 197.1645931109796ZM226.80368881512655 195.32848305392193L223.30997940100292 186.70896639717895L217.26611712985476 197.1645931109796L226.80368881512655 195.32848305392193ZM241.3140585715962 187.06598779716236L243.1501686286539 196.98608241098785L250.49460885688458 193.13535159688078L241.3140585715962 187.06598779716236ZM193.396686388105 190.38118651129426L193.396686388105 190.38118651129426L199.26203795926148 197.1645931109796L202.19471374483967 187.42300919714583L193.75370778808843 190.17717428273235Q193.5751970880967 190.17717428273235 193.396686388105 190.38118651129426ZM202.75574737338508 189.64164218275718L200.562615916344 196.42504878244247L203.67380240191392 194.05340662540962L202.75574737338508 189.64164218275718ZM198.1654722307409 197.52161451096302L192.47863135957616 191.09522931126114Q192.30012065958442 191.09522931126114 192.30012065958442 191.2992415398231L192.30012065958442 191.2992415398231L191.17805340249362 192.21729656835194Q191.73908703103905 191.65626293980657 192.30012065958442 191.2992415398231L192.30012065958442 191.2992415398231L198.1654722307409 197.52161451096302ZM253.07026324247934 194.05340662540962L253.07026324247934 194.05340662540962L255.64591762807416 203.029944682136L257.6605383851236 196.98608241098785Q255.64591762807416 195.68550445390534 253.07026324247934 194.05340662540962ZM270.13078585597356 198.64368176805382L261.68977989922234 194.4104280253931Q263.52588995628 195.68550445390534 265.46400612761863 196.98608241098785Q267.37662077038704 198.26115883950015 269.2127308274447 199.56173679658266L269.2127308274447 199.56173679658266L270.13078585597356 198.64368176805382ZM250.49460885688458 194.7674494253765L243.5071900286373 198.43966953949186L246.46536734278578 204.1520119392268L250.49460885688458 194.7674494253765ZM251.76968528539686 195.32848305392193L247.56193307130633 205.07006696775565L254.72786259954532 204.68754403920198L251.76968528539686 195.32848305392193ZM214.51195204426824 198.64368176805382L205.86693385895504 195.68550445390534L209.18213257308693 204.8660547391937L214.51195204426824 198.64368176805382ZM193.0141634595513 205.60559906773082L197.98696153074917 198.64368176805382L188.42388831690712 196.068027382459L193.0141634595513 205.60559906773082ZM200.00158228779856 198.64368176805382L201.0981480163191 202.8514339821443L203.11276877336851 196.24653808245077L200.00158228779856 198.64368176805382ZM178.88631663163534 208.18125345332564L191.73908703103905 206.52365409625966L186.97030118840314 196.42504878244247L178.88631663163534 208.18125345332564ZM201.83769234485624 204.8660547391937L207.90705614457468 205.42708836773912L204.59185743044276 196.60355948243418L201.83769234485624 204.8660547391937ZM240.95703717161274 198.64368176805382L229.2008325007296 196.80757171099614L233.4085847148201 204.68754403920198L240.95703717161274 198.64368176805382ZM226.44666741514308 196.98608241098785L216.88359420130104 198.82219246804553L221.1168479439618 205.24857766774736L226.44666741514308 196.98608241098785ZM227.9002545436471 197.34310381097131L222.59593660103604 205.78410976772253L232.13350828630786 205.07006696775565L227.9002545436471 197.34310381097131ZM263.7044006562717 205.78410976772253L261.86829059921405 199.74024749657437Q260.41470347071004 198.82219246804553 258.9356148136359 197.72562673952498L258.9356148136359 197.72562673952498L256.563972656603 204.8660547391937L263.7044006562717 205.78410976772253ZM242.41062430011675 199.179213868029L235.2446947718778 205.07006696775565L245.34330008569498 205.07006696775565L242.41062430011675 199.179213868029ZM210.4572090015992 205.60559906773082L219.84177151544952 205.9881219962845L215.7870284727805 199.56173679658266L210.4572090015992 205.60559906773082ZM194.49325211662554 205.9881219962845L200.00158228779856 205.07006696775565L198.905016559278 199.91875819656607L194.49325211662554 205.9881219962845ZM263.7044006562717 201.01532392508662L263.7044006562717 201.01532392508662L265.00497861335424 205.07006696775565L266.6625779704202 203.029944682136Q265.18348931334594 202.11188965360716 263.7044006562717 201.01532392508662ZM177.9682616031065 206.90617702481333L181.07944808867643 202.31590188216913Q179.62586096017245 203.94799971066485 177.9682616031065 205.78410976772253L177.9682616031065 205.78410976772253L177.9682616031065 206.90617702481333ZM267.75914369894076 203.94799971066485L267.75914369894076 203.94799971066485L266.4585657418582 205.78410976772253L269.77376445599015 205.42708836773912Q268.8557094274613 204.68754403920198 267.75914369894076 203.94799971066485ZM255.08488399952876 205.78410976772253L247.00089944276095 206.52365409625966L249.75506452834745 219.75894742421704L255.08488399952876 205.78410976772253ZM275.28209462716313 209.83885281039156L275.1035839271714 205.78410976772253Q275.1035839271714 205.78410976772253 275.1035839271714 205.78410976772253Q275.1035839271714 205.78410976772253 275.1035839271714 205.78410976772253L275.1035839271714 205.78410976772253L271.0488408845024 206.34514339626796Q273.26747387011375 208.18125345332564 275.28209462716313 209.83885281039156L275.28209462716313 209.83885281039156ZM264.0869235848254 207.08468772480504L256.35996042804106 205.9881219962845L260.03218054215637 213.33256222451516L264.0869235848254 207.08468772480504Q264.0869235848254 207.08468772480504 264.0869235848254 207.08468772480504L264.0869235848254 207.08468772480504ZM193.396686388105 207.4417091247885L198.1654722307409 218.8408923956882L200.18009298779026 206.16663269627625L193.396686388105 207.4417091247885ZM245.72582301424868 206.16663269627625L233.9696183433655 206.16663269627625L241.1355478716045 216.80077011006856L245.72582301424868 206.16663269627625ZM209.92167690162404 206.70216479625137L217.08760642986303 213.51107292450692L220.3773036154247 207.08468772480504L209.92167690162404 206.70216479625137ZM201.27665871631086 207.6202198247802L208.0855668445664 217.5403144386057L201.0981480163191 207.2631984247968L199.44054865925318 220.1159688242005L201.27665871631086 207.6202198247802ZM259.1141255136275 213.86809432449033L255.64591762807416 207.2631984247968L251.05564248542998 219.19791379567167L259.1141255136275 213.86809432449033ZM178.1467723030982 209.4563298818379L184.5731575028001 218.63688016712624L192.09610843102246 207.6202198247802L178.1467723030982 209.4563298818379ZM265.00497861335424 207.82423205334217L261.1542477992472 213.51107292450692L273.4459845701055 216.44374871008515L265.00497861335424 207.82423205334217ZM221.29535864395353 207.82423205334217L218.18417215838357 213.51107292450692L229.94037682926677 215.704204381548L221.29535864395353 207.82423205334217ZM233.05156331483667 216.08672731010168L239.6564592145303 216.62225941007685L233.7911076433738 208.00274275333388L233.05156331483667 216.08672731010168ZM209.74316620163233 208.00274275333388L209.36064327307867 216.62225941007685L215.7870284727805 213.86809432449033L209.74316620163233 208.00274275333388ZM248.65849879982693 219.75894742421704L246.26135511422382 208.18125345332564L242.05360290013334 217.18329303862228L248.65849879982693 219.75894742421704ZM192.6571420595679 208.53827485330905L185.66972323132063 218.8408923956882L197.4259279022038 219.93745812420875L192.6571420595679 208.53827485330905ZM176.87169587458595 214.250617253044L176.87169587458595 209.4563298818379Q176.87169587458595 209.4563298818379 176.69318517459425 209.4563298818379L176.69318517459425 209.4563298818379L174.6530628889746 209.27781918184618Q173.93902008900773 210.19587421037502 173.1994757604706 210.9354185389121L173.1994757604706 210.9354185389121L176.87169587458595 214.250617253044ZM276.3786603556837 210.7569078389204L276.3786603556837 210.7569078389204L276.55717105567544 216.80077011006856L281.5299691268733 216.26523801009338Q281.1474461983196 215.5256936815563 280.7904247983362 214.78614935301917L280.7904247983362 214.78614935301917Q278.77580404128673 212.77152859596978 276.3786603556837 210.7569078389204ZM178.1467723030982 211.29243993889557L177.9682616031065 214.60763865302746L181.81899241721356 217.00478233863052L178.1467723030982 211.29243993889557ZM175.3926072175117 214.250617253044L172.45993143193348 211.85347356744094Q171.1848550034212 213.12854999595325 170.0627877463304 214.60763865302746L170.0627877463304 214.60763865302746L175.3926072175117 214.250617253044ZM274.1855288986426 218.10134806715112L261.33275849923893 215.16867228157284L265.9230336418831 224.14521033829928L274.1855288986426 218.10134806715112ZM226.98219951511825 217.92283736715936L229.55785390071304 217.00478233863052L218.9237164869207 215.16867228157284L221.6778815725072 218.27985876714283Q222.95295800101948 218.10134806715112 224.22803442953176 217.99934195287008Q225.52861238661427 217.92283736715936 226.80368881512655 217.92283736715936L226.80368881512655 217.92283736715936Q226.98219951511825 217.92283736715936 226.98219951511825 217.92283736715936L226.98219951511825 217.92283736715936ZM210.10018760161577 217.92283736715936L213.95091841572284 220.47299022418392Q214.3334413442765 220.2944795241922 214.51195204426824 220.2944795241922L214.51195204426824 220.2944795241922L215.96553917277222 215.34718298156454L210.10018760161577 217.92283736715936ZM250.67311955687626 221.21253455272105L257.4820276851318 229.85755273803423L259.1141255136275 215.5256936815563L250.67311955687626 221.21253455272105ZM220.02028221544126 218.63688016712624L220.02028221544126 218.63688016712624L217.44462782984644 215.5256936815563L216.16955140133416 219.55493519565508Q218.00566145839187 219.0194030956799 220.02028221544126 218.63688016712624ZM175.57111791750344 215.704204381548L168.78771131781812 216.08672731010168Q168.78771131781812 216.08672731010168 168.6092006178264 216.26523801009338L168.6092006178264 216.26523801009338Q168.22667768927272 216.62225941007685 167.8696562892893 217.18329303862228L167.8696562892893 217.18329303862228L168.96622201780986 223.6096782383241L175.57111791750344 215.704204381548ZM169.8842770463387 224.70624396684465L179.24333803161878 225.4457882953818L176.87169587458595 216.44374871008515L169.8842770463387 224.70624396684465ZM258.9356148136359 230.036063438026L264.82646791336254 225.06326536682812L260.41470347071004 216.62225941007685L258.9356148136359 230.036063438026ZM281.8869905268567 217.5403144386057L276.55717105567544 218.45836946713453L275.84312825570856 223.96669963830757L281.8869905268567 217.5403144386057ZM241.8750922001416 218.63688016712624L242.79314722867042 229.65354050947226L248.47998809983517 221.39104525271276L241.8750922001416 218.63688016712624ZM206.070946087517 226.36384332391063L210.10018760161577 223.7881889383158Q210.27869830160748 223.4311675383324 210.4572090015992 222.87013390978697L210.4572090015992 222.87013390978697Q211.0182426301446 221.95207888125813 212.2933190586569 221.21253455272105L212.2933190586569 221.21253455272105L209.00362187309523 218.8408923956882L206.070946087517 226.36384332391063ZM204.41334673045102 226.54235402390233L207.34602251602928 218.8408923956882L199.82307158780685 221.21253455272105L204.41334673045102 226.54235402390233ZM238.73840418600142 226.89937542388574L241.3140585715962 229.85755273803423L240.5745142430591 218.8408923956882L235.9842391004149 222.1305895812499Q236.90229412894377 223.22715530977044 237.5398323431999 224.42572715257197Q238.20287208602625 225.6242989953735 238.73840418600142 226.89937542388574L238.73840418600142 226.89937542388574ZM276.7611832842374 225.06326536682812L284.10562351246807 224.70624396684465Q283.54458988392264 221.77356818126643 282.62653485539386 219.0194030956799L282.62653485539386 219.0194030956799L276.7611832842374 225.06326536682812ZM234.32663974334895 221.95207888125813L235.44870700043973 221.21253455272105Q235.2446947718778 221.0340238527293 235.06618407188608 221.0340238527293L235.06618407188608 221.0340238527293Q234.70916267190262 220.47299022418392 234.2501351576382 220.01396270991953Q233.7911076433738 219.55493519565508 233.4085847148201 219.19791379567167L233.4085847148201 219.19791379567167L234.14812904335722 221.95207888125813Q234.14812904335722 221.95207888125813 234.32663974334895 221.95207888125813L234.32663974334895 221.95207888125813ZM267.75914369894076 224.70624396684465L274.1855288986426 225.26727759539008L274.9250732271797 219.37642449566337L267.75914369894076 224.70624396684465ZM165.47251260368623 225.06326536682812L167.51263488930584 224.70624396684465L166.77309056076874 219.55493519565508Q166.03354623223163 221.77356818126643 165.47251260368623 225.06326536682812L165.47251260368623 225.06326536682812ZM191.38206563105558 230.3930848380094L197.24741720221206 221.39104525271276L185.66972323132063 220.2944795241922L191.38206563105558 230.3930848380094ZM181.2834603172384 225.9813203953569L189.54595557399793 230.2145741380177L184.39464680280838 220.8555131527376L181.2834603172384 225.9813203953569ZM193.0141634595513 230.5715955380011L203.31678100193048 227.63891975242288L198.52249363072434 222.1305895812499L193.0141634595513 230.5715955380011ZM243.71120225719926 231.13262916654654L256.563972656603 230.95411846655477L249.57655382835574 222.3091002812416L243.71120225719926 231.13262916654654ZM209.92167690162404 225.26727759539008L209.92167690162404 225.26727759539008L205.33140175897987 228.1999533809683Q205.33140175897987 228.37846408096001 205.33140175897987 228.37846408096001L205.33140175897987 228.37846408096001Q205.15289105898816 228.37846408096001 205.15289105898816 228.55697478095172L205.15289105898816 228.55697478095172L208.0855668445664 239.21661372331434L209.92167690162404 234.24381565211647Q209.92167690162404 233.32576062358763 209.92167690162404 232.05068419507532L209.92167690162404 232.05068419507532Q210.10018760161577 231.13262916654654 210.10018760161577 230.1125680237367Q210.10018760161577 229.11800840949715 210.10018760161577 228.02144268097655L210.10018760161577 228.02144268097655Q210.10018760161577 227.46040905243117 210.10018760161577 226.36384332391063L210.10018760161577 226.36384332391063Q209.92167690162404 225.6242989953735 209.92167690162404 225.26727759539008ZM176.13215154604882 237.55901436624836L179.62586096017245 226.72086472389404Q179.44735026018074 226.72086472389404 179.44735026018074 226.72086472389404L179.44735026018074 226.72086472389404L169.14473271780156 225.6242989953735L176.13215154604882 237.55901436624836ZM164.37594687516568 236.46244863772782L164.37594687516568 236.46244863772782L167.8696562892893 225.8028096953652L165.2940019036945 226.18533262391887Q164.93698050371108 228.55697478095172 164.75846980371935 231.23463528082752Q164.5544575751574 233.886794252133 164.37594687516568 236.46244863772782ZM282.62653485539386 233.32576062358763L284.46264491245154 227.81743045241458Q284.46264491245154 226.72086472389404 284.2841342124598 225.8028096953652L284.2841342124598 225.8028096953652L275.6391160271466 226.36384332391063L281.5299691268733 233.7082835521413Q282.2695134554104 233.5297728521496 282.62653485539386 233.32576062358763L282.62653485539386 233.32576062358763ZM268.2946757989159 232.96873922360422L268.2946757989159 232.96873922360422L265.54051071332935 226.72086472389404L261.33275849923893 232.79022852361246Q262.99035785630485 232.79022852361246 264.7244617990815 232.86673310932323Q266.4585657418582 232.96873922360422 268.2946757989159 232.96873922360422ZM175.21409651751998 238.12004799479374L168.6092006178264 227.1033876524477L164.19743617517395 240.4916901518266Q164.19743617517395 240.87421308038026 164.19743617517395 241.05272378037196L164.19743617517395 241.05272378037196L175.21409651751998 238.12004799479374ZM187.14881188839485 237.73752506624007L190.46401060252674 231.87217349508362L181.07944808867643 227.2818983524394L187.14881188839485 237.73752506624007ZM280.05088046979904 233.7082835521413L280.05088046979904 233.7082835521413L275.1035839271714 227.2818983524394L272.17090814159326 233.14724992359592Q275.1035839271714 233.32576062358763 277.67923831276624 233.5297728521496L277.67923831276624 233.5297728521496Q278.3932811127331 233.5297728521496 279.3113361412619 233.5297728521496L279.3113361412619 233.5297728521496Q279.87236976980734 233.7082835521413 280.05088046979904 233.7082835521413ZM185.8737354598826 237.73752506624007L180.36540528870955 228.1999533809683L177.22871727456936 237.73752506624007L185.8737354598826 237.73752506624007ZM203.31678100193048 228.73548548094342L191.73908703103905 232.61171782362075L192.6571420595679 240.13466875184318L203.31678100193048 228.73548548094342ZM204.2348360304593 229.47502980948056L194.1362307166421 240.13466875184318L207.16751181603755 239.75214582328945L204.2348360304593 229.47502980948056ZM241.49256927158794 232.05068419507532L241.49256927158794 232.05068419507532Q241.49256927158794 232.05068419507532 241.49256927158794 231.48965056652995L241.49256927158794 231.48965056652995L239.83496991452196 229.65354050947226Q239.83496991452196 230.3930848380094 240.03898214308393 231.03062305226555Q240.21749284307566 231.6936627950919 240.5745142430591 231.87217349508362L240.5745142430591 231.87217349508362Q240.95703717161274 232.22919489506708 241.49256927158794 232.05068419507532ZM285.0236785409969 230.036063438026L285.0236785409969 230.036063438026L284.46264491245154 231.48965056652995Q284.64115561244324 231.13262916654654 285.0236785409969 230.5715955380011L285.0236785409969 230.5715955380011Q285.0236785409969 230.3930848380094 285.0236785409969 230.036063438026ZM255.26339469952046 232.61171782362075L255.26339469952046 232.61171782362075L256.35996042804106 232.05068419507532L244.6292572857281 232.4077055950588Q246.0828444142321 232.4077055950588 247.74044377129806 232.4077055950588Q249.398043128364 232.4077055950588 250.85163025686802 232.4077055950588L250.85163025686802 232.4077055950588Q252.89175254248767 232.61171782362075 255.26339469952046 232.61171782362075ZM258.7571041136441 234.44782788067843L260.03218054215637 232.79022852361246Q259.49664844218125 232.79022852361246 258.57859341365236 232.79022852361246L258.57859341365236 232.79022852361246L258.7571041136441 234.44782788067843ZM270.13078585597356 234.44782788067843L270.8703301845107 232.96873922360422Q270.13078585597356 232.96873922360422 269.4167430560067 232.96873922360422L269.4167430560067 232.96873922360422L270.13078585597356 234.44782788067843ZM191.56057633104734 239.57363512329775L190.8210320025102 234.06530495212476L188.24537761691542 238.12004799479374L191.56057633104734 239.57363512329775ZM185.49121253132893 239.21661372331434L177.05020657457766 239.21661372331434L176.48917294603228 249.13670833713982L185.49121253132893 239.21661372331434ZM164.19743617517395 243.42436593740481L166.95160126076047 250.41178476565207L174.47455218898287 239.75214582328945L164.19743617517395 242.50631090887597Q164.19743617517395 242.88883383742964 164.19743617517395 243.42436593740481L164.19743617517395 243.42436593740481ZM177.22871727456936 250.41178476565207L191.17805340249362 250.9728183941975L186.97030118840314 239.75214582328945L177.22871727456936 250.41178476565207ZM191.73908703103905 241.40974518035543L188.42388831690712 239.95615805185142L191.56057633104734 248.01464108004902L191.73908703103905 241.40974518035543ZM168.22667768927272 250.9728183941975L174.85707511753657 250.41178476565207L175.3926072175117 241.05272378037196L168.22667768927272 250.9728183941975ZM207.16751181603755 241.23123448036372L194.31474141663386 241.58825588034713L204.41334673045102 250.9728183941975L207.16751181603755 241.23123448036372ZM209.00362187309523 242.50631090887597L209.00362187309523 242.50631090887597L209.53915397307037 246.561053951545L209.74316620163233 245.0819652944708Q209.74316620163233 244.54643319449562 209.64116008735135 243.9853995659502Q209.53915397307037 243.42436593740481 209.00362187309523 242.50631090887597ZM193.21817568811326 242.50631090887597L193.0141634595513 250.9728183941975L202.75574737338508 251.50835049417267L193.21817568811326 242.50631090887597ZM208.62109894454153 252.06938412271805L207.70304391601272 244.34242096593366L205.68842315896327 251.68686119416432L208.62109894454153 252.06938412271805ZM164.19743617517395 250.05476336566866L165.47251260368623 250.59029546564378L164.19743617517395 247.30059828008214Q164.19743617517395 248.5756747085944 164.19743617517395 250.05476336566866L164.19743617517395 250.05476336566866ZM210.27869830160748 249.8507511371067L210.10018760161577 251.3298397941809L210.27869830160748 252.60491622269316L210.27869830160748 249.8507511371067ZM164.19743617517395 257.7562249938827L164.19743617517395 257.7562249938827L166.21205693222333 252.42640552270146Q166.21205693222333 252.24789482270975 166.03354623223163 252.06938412271805L166.03354623223163 252.06938412271805L164.19743617517395 251.3298397941809Q164.19743617517395 253.1659498512386 164.19743617517395 255.00205990829627L164.19743617517395 255.00205990829627Q164.37594687516568 256.27713633680855 164.19743617517395 257.7562249938827ZM176.48917294603228 251.50835049417267L185.8737354598826 261.7854665079816L191.17805340249362 252.06938412271805L176.48917294603228 251.50835049417267ZM174.29604148899116 259.9493564509239L175.03558581752827 251.68686119416432Q175.03558581752827 251.68686119416432 175.03558581752827 251.50835049417267L175.03558581752827 251.50835049417267L167.51263488930584 252.24789482270975L174.29604148899116 259.9493564509239ZM176.13215154604882 252.80892845125513L175.21409651751998 260.3318793794775L184.21613610281662 261.60695580798983L176.13215154604882 252.80892845125513ZM197.98696153074917 264.0040994935929L192.09610843102246 252.80892845125513L187.14881188839485 262.5250108365186L192.30012065958442 253.3444605512303L197.98696153074917 264.0040994935929ZM208.8251111731035 253.1659498512386L205.15289105898816 252.9874391512469L205.86693385895504 261.07142370801466L208.8251111731035 253.1659498512386ZM164.19743617517395 261.60695580798983L164.19743617517395 261.60695580798983L173.0209650604789 260.3318793794775L166.95160126076047 253.3444605512303L164.19743617517395 261.07142370801466Q164.19743617517395 261.2499344080064 164.19743617517395 261.2499344080064L164.19743617517395 261.2499344080064Q164.19743617517395 261.4284451079981 164.19743617517395 261.60695580798983ZM204.9488788304262 262.1679894365352L204.2348360304593 254.8235492083045L200.00158228779856 263.4430658650475L204.9488788304262 262.1679894365352ZM209.36064327307867 255.56309353684165L207.52453321602098 260.1533686794859L209.74316620163233 257.9347356938745Q209.74316620163233 257.9347356938745 209.74316620163233 257.85823110816375Q209.74316620163233 257.7562249938827 209.74316620163233 257.7562249938827L209.74316620163233 257.7562249938827L209.36064327307867 255.56309353684165ZM209.74316620163233 259.9493564509239L209.74316620163233 259.9493564509239L206.60647818749214 262.90753376507234L209.92167690162404 270.6089953932865L209.92167690162404 268.59437463623703Q209.92167690162404 267.67631960770825 209.92167690162404 266.8347691648901Q209.92167690162404 266.01872025064233 209.92167690162404 265.10066522211343L209.92167690162404 265.10066522211343Q209.92167690162404 264.18261019358465 209.92167690162404 263.6215765650393L209.92167690162404 263.6215765650393Q209.92167690162404 262.7035215365104 209.81967078734309 261.7854665079816Q209.74316620163233 260.8674114794527 209.74316620163233 259.9493564509239ZM178.5292952316519 269.33391896477417L184.7516682027918 263.26455516505575L175.57111791750344 261.7854665079816L178.5292952316519 269.33391896477417ZM168.43068991783468 269.6909403647576L173.0209650604789 261.7854665079816L164.19743617517395 263.086044465064Q164.19743617517395 263.086044465064 164.19743617517395 263.086044465064Q164.19743617517395 263.086044465064 164.19743617517395 263.086044465064L164.19743617517395 263.086044465064L168.43068991783468 269.6909403647576ZM169.70576634634696 270.4304846932947L177.22871727456936 269.86945106474934L174.29604148899116 262.5250108365186L169.70576634634696 270.4304846932947ZM186.97030118840314 263.6215765650393L187.5058332883783 273.36316047887294L196.89039580222862 265.10066522211343L186.97030118840314 263.6215765650393ZM179.62586096017245 270.4304846932947L186.230756859866 273.72018187885647L185.66972323132063 264.3611208935763L179.62586096017245 270.4304846932947ZM203.67380240191392 269.33391896477417L209.18213257308693 272.44510545034416L205.68842315896327 264.53963159356806L203.67380240191392 269.33391896477417ZM190.08148767397307 273.1846497788813L201.4806709448728 269.33391896477417L198.52249363072434 265.6616988506588L190.08148767397307 273.1846497788813ZM164.37594687516568 272.80212685032757L167.30862266074388 270.9660167932699L164.19743617517395 265.84020955065057Q164.19743617517395 267.4978089077165 164.29944228945493 269.33391896477417Q164.37594687516568 271.17002902183185 164.37594687516568 272.80212685032757L164.37594687516568 272.80212685032757ZM251.59117458540513 266.197230950634L249.93357522833918 268.03334100769166Q252.33071891394226 267.8548303077 254.90637329953702 267.67631960770825L254.90637329953702 267.67631960770825L251.59117458540513 266.197230950634ZM271.6098745130478 267.1152859791629L271.6098745130478 267.1152859791629L276.02163895570027 271.17002902183185L280.05088046979904 266.9367752791711Q279.51534836982387 266.9367752791711 279.3113361412619 266.9367752791711L279.3113361412619 266.9367752791711Q277.67923831276624 266.9367752791711 275.91963284141934 267.03878139345215Q274.1855288986426 267.1152859791629 272.52792954157667 267.1152859791629L272.52792954157667 267.1152859791629Q272.52792954157667 267.1152859791629 272.52792954157667 267.1152859791629L272.52792954157667 267.1152859791629Q272.52792954157667 267.1152859791629 272.52792954157667 267.1152859791629Q272.52792954157667 267.1152859791629 272.52792954157667 267.1152859791629L272.52792954157667 267.1152859791629Q272.17090814159326 267.1152859791629 271.6098745130478 267.1152859791629ZM282.0655012268485 266.9367752791711L282.0655012268485 266.9367752791711L278.3932811127331 270.9660167932699L284.81966631243495 269.1299067362122Q284.2841342124598 268.03334100769166 282.0655012268485 266.9367752791711ZM260.9502355706852 268.59437463623703L267.580632998949 268.95139603622056L266.1015443418748 267.2937966791545Q264.44394498480887 267.2937966791545 263.1688685562966 267.4978089077165L263.1688685562966 267.4978089077165L260.9502355706852 268.59437463623703ZM257.09950475657814 267.67631960770825L257.09950475657814 267.67631960770825L258.1960704850987 268.2118517076834L259.67515914217296 267.4978089077165Q258.4000827136607 267.4978089077165 257.09950475657814 267.67631960770825ZM243.1501686286539 268.4158639362454L243.1501686286539 268.4158639362454L245.72582301424868 270.9660167932699L248.47998809983517 268.03334100769166Q247.91895447128977 268.03334100769166 247.00089944276095 268.03334100769166L247.00089944276095 268.03334100769166Q246.0828444142321 268.03334100769166 245.08828479999252 268.1353471219727Q244.0682236571827 268.2118517076834 243.1501686286539 268.4158639362454ZM239.47794851453853 273.1846497788813L244.42524505716614 271.705561121807L241.67107997157962 268.95139603622056Q241.49256927158794 269.1299067362122 241.49256927158794 269.1299067362122L241.49256927158794 269.1299067362122Q240.7530249430508 269.86945106474934 240.39600354306737 270.9660167932699Q240.03898214308393 272.08808405036075 239.47794851453853 273.00613907888953L239.47794851453853 273.00613907888953Q239.47794851453853 273.00613907888953 239.47794851453853 273.1846497788813L239.47794851453853 273.1846497788813ZM273.8030059700889 270.6089953932865L269.77376445599015 269.1299067362122Q269.77376445599015 269.33391896477417 269.77376445599015 269.33391896477417L269.77376445599015 269.33391896477417Q269.95227515598185 269.51242966476593 269.95227515598185 269.51242966476593L269.95227515598185 269.51242966476593L273.8030059700889 270.6089953932865ZM258.57859341365236 270.0479617647411L259.1141255136275 283.6402764926819L268.4986880274779 270.0479617647411L258.57859341365236 270.0479617647411ZM246.64387804277752 272.6236161503359L253.07026324247934 281.4471450356408L257.4820276851318 270.0479617647411L246.64387804277752 272.6236161503359ZM198.52249363072434 281.8041664356242L202.19471374483967 270.25197399330307L187.88835621693198 275.1992705359306L198.52249363072434 281.8041664356242ZM285.0236785409969 270.25197399330307L276.55717105567544 272.80212685032757L280.9689354983278 283.81878719267365L284.81966631243495 273.36316047887294Q284.81966631243495 273.00613907888953 284.81966631243495 272.44510545034416L284.81966631243495 272.44510545034416Q285.0236785409969 270.9660167932699 285.0236785409969 270.25197399330307L285.0236785409969 270.25197399330307ZM208.8251111731035 282.18668936417794L209.92167690162404 274.1027048074101L203.49529170192218 270.6089953932865L208.8251111731035 282.18668936417794ZM273.8030059700889 282.54371076416135L275.4606053271549 272.80212685032757L269.95227515598185 270.78750609327824L273.8030059700889 282.54371076416135ZM168.96622201780986 271.705561121807L173.1994757604706 285.4763865497396L177.7897509031148 270.9660167932699L168.96622201780986 271.705561121807ZM273.08896317012204 283.2832550926985L269.034220127453 271.3485397218236L260.2361927707183 284.0227994212356L273.08896317012204 283.2832550926985ZM179.06482733162704 271.3485397218236L184.21613610281662 281.982677135616L186.40926755985777 275.55629193591403Q186.230756859866 275.3777812359224 186.230756859866 275.020759835939L186.230756859866 275.020759835939L179.06482733162704 271.3485397218236ZM207.90705614457468 282.54371076416135L202.93425807337678 271.705561121807L199.64456088781515 281.8041664356242L207.90705614457468 282.54371076416135ZM165.6765248322482 278.6929799500542L165.6765248322482 278.6929799500542L167.8696562892893 272.08808405036075L164.5544575751574 273.9241941074183Q164.93698050371108 276.1173255644595 165.47251260368623 277.9534356215172L165.47251260368623 277.9534356215172Q165.47251260368623 278.3104570215006 165.6765248322482 278.6929799500542ZM183.11957037429607 282.54371076416135L178.5292952316519 272.6236161503359L174.29604148899116 285.65489724973133L183.11957037429607 282.54371076416135ZM237.46332775748914 277.3924019929717L239.1209271145551 282.54371076416135L244.98627868571154 272.6236161503359L238.73840418600142 274.4597262073936Q238.381382786018 275.1992705359306 238.1008659717453 275.93881486446776Q237.8203491574726 276.6783591930049 237.46332775748914 277.3924019929717L237.46332775748914 277.3924019929717ZM257.6605383851236 272.80212685032757L254.16682897099994 281.8041664356242L258.017559785107 283.6402764926819L257.6605383851236 272.80212685032757ZM245.72582301424868 273.36316047887294L240.21749284307566 282.54371076416135L251.9736975139588 281.62565573563256L245.72582301424868 273.36316047887294ZM168.43068991783468 273.72018187885647L166.39056763221504 280.35057930712026Q166.594579860777 280.8861114070954 166.77309056076874 281.4471450356408L166.77309056076874 281.4471450356408L171.89889780338808 284.9408544497644L168.43068991783468 273.72018187885647ZM276.3786603556837 275.020759835939L274.9250732271797 283.46176579269013L279.87236976980734 284.0227994212356L276.3786603556837 275.020759835939ZM196.32936217368322 281.8041664356242L187.32732258838658 276.1173255644595L185.31270183133717 282.18668936417794L196.32936217368322 281.8041664356242ZM210.83973193015288 277.21389129298007L209.74316620163233 283.1047443927067L213.21137408718573 284.73684222120244L210.83973193015288 277.21389129298007ZM234.14812904335722 281.0646221070871L234.14812904335722 281.0646221070871L237.8203491574726 282.3652000641696L236.5452727289603 278.5144692500626Q235.6272177004315 279.96805637856653 234.14812904335722 281.0646221070871ZM212.49733128721883 278.6929799500542L212.49733128721883 278.6929799500542L215.04748414424338 285.2978758497478L217.44462782984644 282.90073216414476Q214.86897344425168 281.62565573563256 213.21137408718573 279.6110349785831L213.21137408718573 279.6110349785831Q212.8543526872023 279.2285120500294 212.49733128721883 278.6929799500542ZM283.54458988392264 280.1465670785583L282.8050455553856 282.18668936417794Q283.18756848393923 281.26863433564904 283.54458988392264 280.1465670785583L283.54458988392264 280.1465670785583ZM237.64183845748087 283.81878719267365L232.4905296862913 282.18668936417794Q231.7764868863244 282.54371076416135 230.85843185779558 282.90073216414476L230.85843185779558 282.90073216414476L232.13350828630786 290.0666616923837L237.64183845748087 283.81878719267365ZM251.9736975139588 283.1047443927067L239.83496991452196 284.20131012122727L244.0682236571827 296.3145361920939L251.9736975139588 283.1047443927067ZM185.49121253132893 283.6402764926819L193.0141634595513 296.13602549210214L197.6044386021955 283.2832550926985L185.49121253132893 283.6402764926819ZM254.90637329953702 290.9847167209126L257.8390490851153 285.11936514975616L254.16682897099994 283.46176579269013L254.90637329953702 290.9847167209126ZM229.37934320072137 283.46176579269013L225.88563378659768 294.4784261350362L231.03694255778728 291.3672396494662L229.37934320072137 283.46176579269013Q229.37934320072137 283.46176579269013 229.37934320072137 283.46176579269013L229.37934320072137 283.46176579269013ZM217.80164922982988 284.20131012122727L217.80164922982988 284.20131012122727L219.28073788690412 283.6402764926819Q219.10222718691242 283.46176579269013 218.82171037263973 283.56377190697117Q218.541193558367 283.6402764926819 217.80164922982988 284.20131012122727ZM222.03490297249064 284.0227994212356L215.7870284727805 286.39444157826836L224.22803442953176 294.8354475350196L227.72174384365536 283.81878719267365Q224.78906805807716 284.379820821219 222.03490297249064 284.0227994212356L222.03490297249064 284.0227994212356ZM170.44531067488407 288.9700959638632L170.44531067488407 288.9700959638632L172.10291003195005 286.95547520681384L168.04816698928101 284.0227994212356Q169.14473271780156 286.5729522782601 170.44531067488407 288.9700959638632ZM174.85707511753657 286.95547520681384L179.62586096017245 289.88815099239207L182.7370474457424 284.20131012122727L174.85707511753657 286.95547520681384ZM180.72242668869302 290.6276953209292L191.17805340249362 295.9575147921105L184.21613610281662 284.379820821219L180.72242668869302 290.6276953209292ZM245.72582301424868 296.49304689208566L253.80980757101648 293.2033497065239L252.68774031392567 284.379820821219L245.72582301424868 296.49304689208566ZM194.49325211662554 296.6715575920773L202.75574737338508 294.1214047350528L198.7265058592863 284.5583315212108L194.49325211662554 296.6715575920773ZM272.52792954157667 284.73684222120244L260.5932141707018 285.4763865497396L267.580632998949 291.72426104944975L272.52792954157667 284.73684222120244ZM213.5938970157394 286.5729522782601L210.27869830160748 284.9408544497644L212.49733128721883 292.4638053779868L213.5938970157394 286.5729522782601ZM232.87305261484497 291.545750349458L242.58913500010848 296.6715575920773L238.55989348600968 284.9408544497644L232.87305261484497 291.545750349458ZM279.87236976980734 289.3271173638466L280.2293911697908 285.4763865497396L275.84312825570856 284.9408544497644L279.6938590698156 289.7096402924003Q279.87236976980734 289.53112959240855 279.87236976980734 289.3271173638466L279.87236976980734 289.3271173638466ZM204.77036813043446 293.91739250649084L211.57927625869002 294.656936835028L208.8251111731035 285.4763865497396L204.77036813043446 293.91739250649084ZM255.82442832806586 292.8208267779703L265.9230336418831 292.2852946779951L258.9356148136359 286.03742017828495L255.82442832806586 292.8208267779703ZM222.77444730102778 295.396481163565L214.86897344425168 287.695019535351L213.5938970157394 294.8354475350196L222.77444730102778 295.396481163565ZM171.3633657034129 290.6276953209292L177.4072279745611 290.44918462093744L173.37798646046232 287.695019535351L171.1848550034212 290.44918462093744Q171.3633657034129 290.6276953209292 171.3633657034129 290.6276953209292L171.3633657034129 290.6276953209292ZM268.4986880274779 292.4638053779868L278.5972933412951 291.545750349458Q278.5972933412951 291.3672396494662 278.77580404128673 291.16322742090426L278.77580404128673 291.16322742090426L268.4986880274779 292.4638053779868ZM176.31066224604052 298.71167987769695L176.31066224604052 298.71167987769695L179.06482733162704 291.3672396494662L171.89889780338808 291.72426104944975Q174.11753078899943 295.57499186355676 176.31066224604052 298.71167987769695ZM186.40926755985777 302.56241069180396L192.30012065958442 297.79362484916817L180.72242668869302 291.9027717494414L186.40926755985777 302.56241069180396ZM225.14608945806057 296.6715575920773L228.1042667722091 304.22001004887L231.21545325777902 292.4638053779868L225.35010168662257 296.3145361920939Q225.35010168662257 296.3145361920939 225.35010168662257 296.3145361920939L225.35010168662257 296.3145361920939Q225.35010168662257 296.49304689208566 225.14608945806057 296.6715575920773L225.14608945806057 296.6715575920773ZM243.1501686286539 298.1506462491516L243.1501686286539 298.1506462491516L232.87305261484497 292.64231607797853L240.7530249430508 304.5770314488534L243.32867932864562 298.507667649135Q243.32867932864562 298.507667649135 243.1501686286539 298.1506462491516ZM277.67923831276624 292.64231607797853L277.67923831276624 292.64231607797853L268.2946757989159 293.56037110650743L270.13078585597356 299.98675630620926Q272.17090814159326 298.32915694914334 274.0070181986509 296.6715575920773Q275.84312825570856 295.0394597635816 277.4752260842042 292.99933747796194L277.4752260842042 292.99933747796194Q277.4752260842042 292.8208267779703 277.67923831276624 292.64231607797853ZM179.80437166016418 292.8208267779703L177.05020657457766 299.8082456062175Q177.05020657457766 299.8082456062175 177.05020657457766 299.8082456062175Q177.05020657457766 299.8082456062175 177.05020657457766 299.98675630620926L177.05020657457766 299.98675630620926L184.5731575028001 302.17988776325035L179.80437166016418 292.8208267779703ZM262.4293242277595 305.8521078773657L267.0195993704036 293.2033497065239L255.26339469952046 294.1214047350528L262.07230282777596 306.0561201059277Q262.2508135277677 305.8521078773657 262.4293242277595 305.8521078773657L262.4293242277595 305.8521078773657ZM239.47794851453853 304.5770314488534L232.13350828630786 293.56037110650743L229.0223218007379 304.75554214884517L239.47794851453853 304.5770314488534ZM252.68774031392567 307.50970723443163L253.98831827100818 294.1214047350528L244.6292572857281 298.32915694914334L252.68774031392567 307.50970723443163ZM193.93221848808014 298.1506462491516L197.4259279022038 303.09794279177913Q197.4259279022038 303.09794279177913 197.4259279022038 303.09794279177913L197.4259279022038 303.09794279177913L202.75574737338508 295.21797046357335L193.93221848808014 297.9721355491598Q193.93221848808014 298.1506462491516 193.93221848808014 298.1506462491516L193.93221848808014 298.1506462491516ZM269.2127308274447 300.7263006347464L267.580632998949 295.21797046357335L263.90841288483364 304.75554214884517Q265.3620000133377 303.83748712031627 266.2800550418665 302.7409213917957L266.2800550418665 302.7409213917957Q266.2800550418665 302.7409213917957 266.4585657418582 302.56241069180396L266.4585657418582 302.56241069180396Q266.4585657418582 302.56241069180396 266.6625779704202 302.56241069180396L266.6625779704202 302.56241069180396Q267.9376543989324 301.6443556632752 269.2127308274447 300.7263006347464L269.2127308274447 300.7263006347464ZM203.67380240191392 307.89223016298536L211.93629765867345 295.9575147921105Q211.93629765867345 295.9575147921105 211.93629765867345 295.9575147921105L211.93629765867345 295.9575147921105L204.03082380189736 295.21797046357335L203.67380240191392 307.89223016298536ZM261.1542477992472 306.59165220590285L255.08488399952876 295.9575147921105L253.80980757101648 307.50970723443163L260.9502355706852 306.59165220590285Q261.1542477992472 306.59165220590285 261.1542477992472 306.59165220590285L261.1542477992472 306.59165220590285ZM223.87101302954832 296.49304689208566L213.5938970157394 295.9575147921105L220.5558143154164 302.3838999918123Q220.5558143154164 302.3838999918123 220.75982654397836 302.3838999918123L220.75982654397836 302.3838999918123L223.87101302954832 296.49304689208566ZM205.15289105898816 307.6882179344234L219.28073788690412 302.7409213917957L212.8543526872023 296.6715575920773L205.15289105898816 307.6882179344234ZM202.93425807337678 297.05408052063103L198.34398293073264 303.6589764203246L202.57723667339334 307.50970723443163L202.93425807337678 297.05408052063103ZM224.4320466580937 297.9721355491598L221.85639227249894 302.7409213917957L226.80368881512655 304.39852074886164L224.4320466580937 297.9721355491598ZM188.0668669169237 302.7409213917957L195.97234077369978 303.09794279177913L193.0141634595513 298.8901905776887L188.0668669169237 302.7409213917957ZM250.85163025686802 307.1526858344482L244.0682236571827 299.42572267766377L241.8750922001416 304.75554214884517L250.85163025686802 307.1526858344482ZM181.99750311720527 304.5770314488534L181.99750311720527 304.5770314488534Q181.81899241721356 304.39852074886164 181.81899241721356 304.75554214884517L181.81899241721356 304.75554214884517L178.88631663163534 302.3838999918123Q178.5292952316519 301.6443556632752 177.61124020312306 301.26183273472145L177.61124020312306 301.26183273472145L178.88631663163534 302.3838999918123Q179.62586096017245 303.3019550203411 180.36540528870955 304.01599782030803L180.36540528870955 304.01599782030803L181.4619710172301 304.9340528488368Q181.4619710172301 304.9340528488368 181.64048171722183 304.75554214884517L181.64048171722183 304.75554214884517Q181.64048171722183 304.75554214884517 181.99750311720527 304.5770314488534ZM221.6778815725072 311.5644502771007L226.80368881512655 305.8521078773657L221.47386934394524 304.22001004887L221.6778815725072 311.5644502771007ZM183.47659177427954 305.31657577739054L190.8210320025102 309.16730659149755L185.8737354598826 304.22001004887L183.47659177427954 305.31657577739054ZM203.49529170192218 313.4005603341583L203.49529170192218 313.4005603341583L197.6044386021955 305.4950864773822L195.76832854513782 311.36043804853875L201.0981480163191 312.8395267056129Q201.0981480163191 312.8395267056129 201.27665871631086 313.0180374056047L201.27665871631086 313.0180374056047Q202.39872597340164 313.1965481055963 203.49529170192218 313.4005603341583ZM190.8210320025102 310.2638723200181L190.8210320025102 310.2638723200181L181.99750311720527 305.8521078773657Q182.20151534576726 306.0561201059277 182.38002604575894 306.0561201059277L182.38002604575894 306.0561201059277Q184.21613610281662 307.50970723443163 186.40926755985777 308.52976837724145Q188.6279005454691 309.5243279914811 190.8210320025102 310.2638723200181ZM235.8057284004232 314.49712606267894L239.6564592145303 306.0561201059277L229.55785390071304 306.2346308059193L235.6272177004315 314.49712606267894Q235.6272177004315 314.49712606267894 235.8057284004232 314.49712606267894L235.8057284004232 314.49712606267894ZM246.46536734278578 311.9214716770841L251.23415318542166 308.81028519151414L241.8750922001416 306.4131415059111L243.5071900286373 312.66101600562126Q244.24673435717443 312.4825053056295 244.98627868571154 312.27849307706754Q245.72582301424868 312.0999823770758 246.46536734278578 311.9214716770841L246.46536734278578 311.9214716770841ZM233.9696183433655 314.49712606267894L233.9696183433655 314.49712606267894L228.1042667722091 306.59165220590285L222.39192437247408 312.8395267056129L232.87305261484497 314.6756367626706Q233.4085847148201 314.6756367626706 233.9696183433655 314.49712606267894ZM217.80164922982988 314.49712606267894L220.19879291543296 313.0180374056047L220.02028221544126 307.50970723443163L217.80164922982988 314.49712606267894ZM242.05360290013334 313.0180374056047L242.05360290013334 313.0180374056047L240.5745142430591 307.50970723443163L237.46332775748914 314.1146031341252Q238.55989348600968 314.1146031341252 239.47794851453853 313.93609243413346L239.47794851453853 313.93609243413346Q240.5745142430591 313.57907103415005 242.05360290013334 313.0180374056047ZM256.1814497280493 308.81028519151414L254.16682897099994 309.5243279914811Q255.26339469952046 309.16730659149755 256.1814497280493 308.81028519151414L256.1814497280493 308.81028519151414ZM252.68774031392567 309.5243279914811L252.68774031392567 309.5243279914811L251.23415318542166 310.44238302000986Q252.33071891394226 310.08536162002645 252.68774031392567 309.5243279914811ZM211.57927625869002 314.49712606267894L211.57927625869002 314.49712606267894L204.77036813043446 310.8249059485636L205.86693385895504 313.7575817341418Q208.62109894454153 314.1146031341252 211.57927625869002 314.49712606267894ZM222.77444730102778 315.032658162654L220.9383372439701 314.1146031341252L219.63775928688756 315.032658162654L222.77444730102778 315.032658162654ZM227.54323314366366 314.85414746266235L227.54323314366366 314.85414746266235L224.04952372954003 314.3186153626872L225.70712308660598 314.85414746266235Q226.80368881512655 314.85414746266235 227.54323314366366 314.85414746266235ZM334.0376164530087 208.18125345332564L331.84448499596755 207.08468772480504Q331.84448499596755 207.08468772480504 331.64047276740564 206.90617702481333L331.64047276740564 206.90617702481333Q331.4619620674139 206.90617702481333 331.4619620674139 206.90617702481333L331.4619620674139 206.90617702481333Q327.4327205533151 204.1520119392268 323.76050043919975 201.01532392508662Q320.0882803250844 197.9041374395167 316.5945709109608 194.5889387253848L316.5945709109608 194.5889387253848Q309.8111643112755 188.34106422567467 302.26271185448286 182.83273405450166L302.26271185448286 182.83273405450166Q301.5486690545159 182.4757126545182 300.98763542597055 182.0166851402538Q300.4266017974252 181.55765762598935 299.89106969745 180.99662399744398L299.89106969745 180.99662399744398Q298.79450396892946 180.81811329745227 298.0549596403923 179.90005826892343L298.0549596403923 179.90005826892343Q297.8764489404006 179.54303686893996 297.49392601184695 178.80349254040289L297.49392601184695 178.80349254040289Q295.65781595478927 178.80349254040289 294.9182716262522 177.98744362615503Q294.2042288262853 177.1458931833369 297.13690461186354 174.03470669776698L297.13690461186354 174.03470669776698Q298.2334703403841 172.93814096924643 299.04951925463195 171.7395691264449Q299.89106969745 170.54099728364332 301.344656825954 169.80145295510619L301.344656825954 169.80145295510619Q302.4667240830448 169.44443155512278 303.1807668830117 169.44443155512278Q303.9203112115488 169.44443155512278 304.8383662400777 169.44443155512278L304.8383662400777 169.44443155512278Q305.75642126860646 169.62294225511448 306.3174548971519 169.62294225511448L306.3174548971519 169.62294225511448Q308.89310928274665 169.80145295510619 311.3667575540604 169.80145295510619Q313.84040582537426 169.80145295510619 316.4160602109691 169.97996365509795L316.4160602109691 169.97996365509795Q320.62381242505955 169.97996365509795 324.8570661677203 170.36248658365162Q329.090319910381 170.71950798363503 333.29807212447156 171.10203091218875L333.29807212447156 171.10203091218875Q335.312692881521 171.28054161218046 337.5313258671323 171.56105842645314Q339.7244573241734 171.81607371215557 341.73907808122283 172.93814096924643L341.73907808122283 172.93814096924643Q342.8611453383136 173.6521837692133 343.67719425256143 174.57023879774215Q344.4932431668093 175.48829382627093 345.23278749534643 176.40634885479977L345.23278749534643 176.40634885479977Q346.53336545242894 177.88543751187404 347.6299311809495 179.36452616894826Q348.72649690947003 180.81811329745227 349.8230626379906 182.29720195452649L349.8230626379906 182.29720195452649Q352.041695623602 185.05136704011298 354.3368331949241 187.88203671141022Q356.6319707662461 190.73820791127773 359.003612923279 193.49237299686425L359.003612923279 193.49237299686425Q359.92166795180776 194.5889387253848 360.83972298033666 195.78751056818632Q361.75777800886544 196.98608241098785 362.8543437373861 198.08264813950845L362.8543437373861 198.08264813950845Q363.7723987659149 198.26115883950015 364.33343239446026 199.179213868029L364.33343239446026 199.179213868029Q364.511943094452 199.3577245680207 364.89446602300575 200.27577959654954L364.89446602300575 200.27577959654954Q365.9910317515262 201.01532392508662 366.271548565799 202.31590188216913Q366.52656385150135 203.59097831068144 365.60850882297257 204.68754403920198L365.60850882297257 204.68754403920198Q363.4153773659315 207.08468772480504 362.03829482313824 207.82423205334217Q360.6612122803449 208.53827485330905 357.550025794775 208.742287081871L357.550025794775 208.742287081871L357.34601356621306 208.742287081871Q357.34601356621306 208.742287081871 357.34601356621306 208.742287081871L357.34601356621306 208.742287081871Q357.1675028662213 208.742287081871 356.42795853768416 208.742287081871L356.42795853768416 208.742287081871Q351.1236405950732 208.742287081871 345.7938211238918 208.81879166758173Q340.4640016527105 208.92079778186272 335.13418218152924 208.53827485330905L335.13418218152924 208.53827485330905Q335.13418218152924 208.53827485330905 334.59865008155407 208.35976415331734L334.59865008155407 208.35976415331734Q334.0376164530087 208.18125345332564 334.0376164530087 208.18125345332564L334.0376164530087 208.18125345332564ZM303.1807668830117 178.06394821186575L303.1807668830117 178.06394821186575L303.1807668830117 174.21321739775868Q303.1807668830117 174.03470669776698 303.3847791115736 174.03470669776698L303.3847791115736 174.03470669776698Q303.56328981156537 173.85619599777527 303.56328981156537 173.85619599777527L303.56328981156537 173.85619599777527L308.6890970541847 174.77425102630406Q309.0716199827384 174.3917280977504 309.4286413827218 174.77425102630406L309.4286413827218 174.77425102630406L318.43068096801846 174.95276172629582Q318.60919166801017 174.57023879774215 319.1702252965556 174.95276172629582L319.1702252965556 174.95276172629582L323.37797751064613 174.57023879774215Q319.70575739653077 174.3917280977504 316.2375495109774 174.3917280977504L316.2375495109774 174.3917280977504Q313.84040582537426 174.21321739775868 311.2647514397795 174.21321739775868Q308.6890970541847 174.21321739775868 306.1389441971602 174.03470669776698L306.1389441971602 174.03470669776698Q305.9349319685982 174.03470669776698 305.2208891686313 173.85619599777527L305.2208891686313 173.85619599777527Q303.7418005115571 173.6521837692133 303.3847791115736 173.85619599777527L303.3847791115736 173.85619599777527Q302.6452347830365 174.21321739775868 302.0842011544911 174.85075561201484Q301.5486690545159 175.48829382627093 301.1661461259623 176.22783815480807L301.1661461259623 176.22783815480807Q301.344656825954 176.61036108336174 301.344656825954 176.9673824833452L301.344656825954 176.9673824833452Q301.5486690545159 176.9673824833452 301.7271797545077 176.9673824833452L301.7271797545077 176.9673824833452Q302.26271185448286 177.3244038833286 303.1807668830117 178.06394821186575ZM304.3028341401025 175.13127242628752L304.3028341401025 178.9820032403946Q304.6598555400859 179.1605139403863 304.8383662400777 179.36452616894826L304.8383662400777 179.36452616894826Q304.8383662400777 179.36452616894826 304.8383662400777 179.36452616894826L304.8383662400777 179.36452616894826L307.41402062567244 175.6923060548329L304.3028341401025 175.13127242628752ZM331.2834513674221 175.30978312627923L320.44530172506785 175.87081675482466L327.9682526532903 181.91467902597282L334.9556714815375 175.6923060548329Q334.3946378529921 175.48829382627093 333.85910575301693 175.48829382627093Q333.29807212447156 175.48829382627093 332.7625400244964 175.48829382627093L332.7625400244964 175.48829382627093Q332.0229956959593 175.30978312627923 331.2834513674221 175.30978312627923L331.2834513674221 175.30978312627923ZM317.69113663948133 176.04932745481636L310.34669641125066 175.87081675482466L317.3341152394979 183.21525698305533L317.69113663948133 176.04932745481636ZM338.27087019566943 176.22783815480807L338.27087019566943 176.22783815480807L337.8883472671158 178.9820032403946L339.54594662418174 176.78887178335344Q339.54594662418174 176.78887178335344 339.36743592419 176.78887178335344L339.36743592419 176.78887178335344Q338.98491299563625 176.40634885479977 338.27087019566943 176.22783815480807ZM309.25013068273006 182.6542233545099L315.85502658242365 183.95480131159243L308.6890970541847 176.22783815480807L306.1389441971602 180.2825811974771Q307.59253132566414 181.37914692599765 309.25013068273006 182.6542233545099L309.25013068273006 182.6542233545099ZM319.1702252965556 176.78887178335344L318.60919166801017 184.13331201158414L326.33615482479456 182.4757126545182L319.1702252965556 176.78887178335344ZM340.6425123527023 177.70692681188228L338.06685796710747 181.37914692599765L346.1508425238752 184.6688441115593Q345.0542767953548 183.39376768304703 344.03421565254484 182.0166851402538Q343.03965603830534 180.6396025974605 341.9430903097848 179.36452616894826L341.9430903097848 179.36452616894826Q341.56056738123107 178.9820032403946 341.2800505669584 178.52297572613014Q341.0250352812559 178.06394821186575 340.6425123527023 177.70692681188228L340.6425123527023 177.70692681188228ZM298.0549596403923 178.62498184041112L298.0549596403923 178.62498184041112Q299.33003606890463 179.36452616894826 300.63061402598714 178.62498184041112L300.63061402598714 178.62498184041112Q301.7271797545077 178.24245891185745 300.06958039744177 178.44647114041942L300.06958039744177 178.44647114041942Q299.7125589974583 178.44647114041942 299.15152536891287 178.52297572613014Q298.5904917403675 178.62498184041112 298.0549596403923 178.62498184041112ZM336.6132708386035 180.99662399744398L329.090319910381 182.29720195452649L336.2307479100498 181.37914692599765Q336.2307479100498 181.37914692599765 336.6132708386035 180.99662399744398L336.6132708386035 180.99662399744398ZM328.7077969818274 183.57227838303876L334.21612715300046 195.68550445390534L336.43476013861175 182.4757126545182L328.7077969818274 183.57227838303876ZM327.05019762476144 183.39376768304703L318.7877023680019 185.22987774010474L321.184846053605 191.65626293980657L327.05019762476144 183.39376768304703ZM315.49800518244024 187.8055321256995L315.49800518244024 187.8055321256995L316.95159231094425 185.22987774010474L311.08624073978774 184.13331201158414Q313.27937219682883 185.96942206864182 315.49800518244024 187.8055321256995ZM327.7897419532985 184.3118227115759L322.1029010821338 192.39580726834365L333.1195614244798 195.8895166824673L327.7897419532985 184.3118227115759ZM337.35281516714065 184.3118227115759L335.312692881521 195.50699375391363L340.4640016527105 192.01328433978998L337.35281516714065 184.3118227115759ZM315.49800518244024 191.09522931126114L319.527246696539 191.2992415398231Q319.527246696539 191.2992415398231 319.527246696539 191.2992415398231L319.527246696539 191.2992415398231Q319.70575739653077 191.47775223981486 320.0882803250844 191.83477363979827L320.0882803250844 191.83477363979827L317.5126259394896 186.32644346862529L316.4160602109691 188.54507645423664Q316.5945709109608 188.72358715422834 316.5945709109608 188.72358715422834L316.5945709109608 188.72358715422834L315.49800518244024 191.09522931126114ZM317.69113663948133 186.70896639717895L319.527246696539 191.2992415398231Q318.07365956803505 189.9986635827406 316.5945709109608 188.72358715422834L316.5945709109608 188.72358715422834L317.69113663948133 186.70896639717895ZM348.3694755094866 187.6270214257078L348.3694755094866 187.6270214257078L343.2181667382971 191.83477363979827L352.3987170235854 192.39580726834365Q350.5626069665277 190.17717428273235 348.3694755094866 187.6270214257078ZM351.1236405950732 202.6729232821526L354.5918484806265 195.14997235393022Q354.0563163806514 194.5889387253848 353.6737934520977 194.05340662540962L353.6737934520977 194.05340662540962L343.03965603830534 193.3138622968725L351.1236405950732 202.6729232821526ZM340.2854909527189 194.05340662540962L335.312692881521 197.1645931109796L338.62789159565284 203.029944682136L340.2854909527189 194.05340662540962ZM339.90296802416515 204.33052263921851L349.8230626379906 203.41246761068967L341.73907808122283 194.05340662540962L339.90296802416515 204.33052263921851ZM333.4765828244632 197.52161451096302L323.19946681065437 194.23191732540138L324.6785554677286 195.8895166824673Q326.33615482479456 197.52161451096302 328.17226488185224 198.89869705375625Q330.0083749389099 200.27577959654954 331.84448499596755 201.75486825362375L331.84448499596755 201.75486825362375L333.4765828244632 197.52161451096302ZM359.56464655182435 204.1520119392268L359.56464655182435 204.1520119392268L357.1675028662213 198.26115883950015Q356.8104814662379 197.72562673952498 356.42795853768416 197.2665992252606Q356.07093713770075 196.80757171099614 355.5099035091554 196.24653808245077L355.5099035091554 196.24653808245077Q355.5099035091554 196.24653808245077 355.5099035091554 196.24653808245077Q355.5099035091554 196.24653808245077 355.5099035091554 196.24653808245077L355.5099035091554 196.24653808245077L352.3987170235854 203.41246761068967L357.90704719475843 204.1520119392268Q359.3861358518327 204.1520119392268 359.56464655182435 204.1520119392268ZM337.70983656712406 204.33052263921851L337.70983656712406 204.33052263921851L334.59865008155407 198.64368176805382L333.1195614244798 202.4944125821609Q333.4765828244632 202.8514339821443 333.85910575301693 203.23395691069797L333.85910575301693 203.23395691069797L335.8737265100664 204.1520119392268Q336.79178153859516 204.1520119392268 337.70983656712406 204.33052263921851ZM360.6612122803449 201.93337895361546L360.6612122803449 201.93337895361546Q360.48270158035325 201.75486825362375 360.3041908803615 201.57635755363205L360.3041908803615 201.57635755363205L361.2222459088904 202.4944125821609Q361.0182336803283 202.4944125821609 361.0182336803283 202.31590188216913L361.0182336803283 202.31590188216913Q360.83972298033666 202.11188965360716 360.6612122803449 201.93337895361546Z " fill="#000000" transform="matrix(2.2499999313354513,0,0,2.2499999313354517,0,-249.99999084472722)"/><path d="MNaN 244.44444105360233 " fill="#000000" transform="matrix(2.2499999313354513,0,0,2.2499999313354517,0,-249.99999084472722)"/></g></svg>